<svg width="19" height="15" viewBox="0 0 19 15" fill="none" xmlns="http://www.w3.org/2000/svg">
<path d="M0.43868 6.09663C0.157779 6.37788 0 6.75913 0 7.15663C0 7.55413 0.157779 7.93538 0.43868 8.21663L6.09468 13.8746C6.23401 14.014 6.39942 14.1245 6.58147 14.1999C6.76352 14.2753 6.95863 14.3141 7.15568 14.3141C7.35273 14.3141 7.54784 14.2753 7.72989 14.1999C7.91194 14.1245 8.07735 14.014 8.21668 13.8746C8.35601 13.7353 8.46654 13.5699 8.54194 13.3878C8.61735 13.2058 8.65616 13.0107 8.65616 12.8136C8.65616 12.6166 8.61735 12.4215 8.54194 12.2394C8.46654 12.0574 8.35601 11.892 8.21668 11.7526L5.12068 8.65663H16.6557C17.0535 8.65663 17.435 8.49859 17.7163 8.21729C17.9976 7.93598 18.1557 7.55445 18.1557 7.15663C18.1557 6.7588 17.9976 6.37727 17.7163 6.09597C17.435 5.81466 17.0535 5.65663 16.6557 5.65663H5.12068L8.21668 2.56063C8.49794 2.27923 8.6559 1.89763 8.65581 1.49977C8.65571 1.10192 8.49758 0.720389 8.21618 0.439127C7.93479 0.157865 7.55318 -9.37265e-05 7.15533 4.17235e-08C6.75747 9.38099e-05 6.37594 0.158233 6.09468 0.439627L0.43868 6.09663Z" fill="white"/>
</svg>
